<?xml version="1.0" standalone="no"?>
<!DOCTYPE svg PUBLIC "-//W3C//DTD SVG 1.1//EN" "http://www.w3.org/Graphics/SVG/1.1/DTD/svg11.dtd" >
<svg xmlns="http://www.w3.org/2000/svg">
<metadata>
This is a custom SVG webfont generated by Font Squirrel.
Copyright   :  1998 Ray Larabie This font is freeware Read attached text file for details Info  updates visit wwwlarabiefontscom Donations gratefully accepted at wwwlarabiefontscomdonationhtml Also visit my commercial type foundry at wwwtypodermiccom This font was updated in 2004
Designer    : Ray Larabie
Foundry     : Ray Larabie
Foundry URL : httpwwwlarabiefontscom
</metadata>
<defs>
<font id="BlueHighwayRegular" horiz-adv-x="829" >
<font-face units-per-em="2048" ascent="1638" descent="-410" />
<missing-glyph horiz-adv-x="475" />
<glyph unicode=" "  horiz-adv-x="475" />
<glyph unicode="&#x09;" horiz-adv-x="475" />
<glyph unicode="&#xa0;" horiz-adv-x="475" />
<glyph unicode="!" horiz-adv-x="364" d="M90 115q0 47 25.5 80.5t66.5 33.5q35 0 63.5 -33.5t28.5 -80.5t-28.5 -81t-63.5 -34q-41 0 -66.5 34t-25.5 81zM96 666v469h168v-469l-41 -322h-76z" />
<glyph unicode="&#x22;" horiz-adv-x="479" d="M53 1192h137l-30 -492h-80zM281 1192h143l-31 -492h-80z" />
<glyph unicode="#" horiz-adv-x="1011" d="M57 285v129h209l62 313h-195v129h223l52 279h102l-53 -279h225l57 279h99l-56 -279h172v-129h-198l-66 -313h191v-129h-213l-62 -285h-96l57 285h-227l-59 -285h-99l58 285h-183zM365 412h227l67 317h-231z" />
<glyph unicode="$" horiz-adv-x="831" d="M66 809q0 86 67.5 149.5t196.5 73.5v103h168v-97q68 -8 123 -24.5t94 -42.5l-47 -160q-25 16 -69 32.5t-101 26.5v-202q135 -31 203.5 -97.5t68.5 -177.5q0 -125 -68.5 -195.5t-203.5 -93.5v-104h-168v100q-78 10 -142.5 27.5t-117.5 44.5l53 156q41 -23 92 -41.5 t115 -28.5v279q-264 75 -264 272zM246 793q0 -27 21.5 -50.5t62.5 -35.5v172q-45 -4 -64.5 -28.5t-19.5 -57.5zM498 262q109 37 108 131q0 35 -30.5 63.5t-77.5 45.5v-240z" />
<glyph unicode="%" horiz-adv-x="991" d="M53 932q0 86 53.5 143.5t131.5 57.5t131 -57.5t53 -143.5q0 -41 -14.5 -77t-40 -63.5t-59.5 -43t-70 -15.5q-78 0 -131.5 56.5t-53.5 142.5zM127 936q0 -47 35 -82t76 -35q47 0 76.5 35t29.5 82q0 49 -29.5 85t-76.5 36q-41 0 -76 -36t-35 -85zM238 0l446 1135h98 l-442 -1135h-102zM573 203q0 41 14.5 76.5t40 63.5t59.5 43t73 15t72.5 -15t59.5 -43t40 -63.5t14 -76.5q0 -86 -54 -143.5t-132 -57.5q-82 0 -134.5 57.5t-52.5 143.5zM649 201q0 -47 35 -82t80 -35q47 0 80 35t33 82q0 49 -33 85t-80 36q-45 0 -80 -36t-35 -85z" />
<glyph unicode="&#x26;" horiz-adv-x="1153" d="M88 313q0 123 53.5 192.5t126.5 110.5q-66 70 -102.5 140.5t-36.5 146.5q0 74 32 122t79 78t104 42t111 12q285 0 295 -239l-185 -66q-14 143 -125 143q-117 0 -116 -125q0 -18 16 -47.5t43 -64.5t61.5 -74t73.5 -78q55 -59 108 -108l105 -101q45 88 55 238h187 q0 -57 -8.5 -113.5t-22.5 -108t-30.5 -93t-32.5 -68.5l219 -250h-248l-100 117q-25 -39 -62 -65.5t-80 -44t-87 -25t-81 -7.5q-160 0 -256 90t-96 246zM274 338q0 -86 47.5 -131t133.5 -45q53 0 100 28.5t72 63.5l-250 256q-41 -27 -72 -70t-31 -102z" />
<glyph unicode="'" horiz-adv-x="229" d="M45 1192h137l-30 -492h-80z" />
<glyph unicode="(" horiz-adv-x="477" d="M61 444q0 391 205 738h148q-113 -154 -169.5 -340.5t-56.5 -397.5q0 -379 228 -737h-150q-205 346 -205 737z" />
<glyph unicode=")" horiz-adv-x="475" d="M59 -293q61 94 104.5 181t71 175.5t40 181.5t12.5 199q0 219 -56.5 394.5t-171.5 343.5h148q104 -174 154.5 -356.5t50.5 -381.5t-50.5 -381t-154.5 -356h-148z" />
<glyph unicode="*" horiz-adv-x="942" d="M117 592l280 194l-278 197l51 94l248 -207v342h92v-342l258 205l53 -92l-282 -195l284 -196l-55 -92l-254 213v-351h-90v343l-254 -205z" />
<glyph unicode="+" horiz-adv-x="540" d="M53 528v168h150v183h137v-183h145v-168h-145v-180h-137v180h-150z" />
<glyph unicode="," horiz-adv-x="323" d="M68 115q0 47 25.5 80.5t66.5 33.5q35 0 63.5 -33.5t28.5 -80.5t-9.5 -91t-27.5 -79t-48 -57.5t-69 -26.5v24q41 10 60.5 35t23.5 80h-26q-41 0 -64.5 35t-23.5 80z" />
<glyph unicode="&#x201a;" horiz-adv-x="323" d="M68 115q0 47 25.5 80.5t66.5 33.5q35 0 63.5 -33.5t28.5 -80.5t-9.5 -91t-27.5 -79t-48 -57.5t-69 -26.5v24q41 10 60.5 35t23.5 80h-26q-41 0 -64.5 35t-23.5 80z" />
<glyph unicode="-" horiz-adv-x="491" d="M96 528v168h295v-168h-295z" />
<glyph unicode="." horiz-adv-x="339" d="M78 115q0 47 24.5 80.5t65.5 33.5q35 0 63.5 -33.5t28.5 -80.5t-28.5 -81t-63.5 -34q-41 0 -65.5 34t-24.5 81z" />
<glyph unicode="/" horiz-adv-x="636" d="M39 -82l430 1331h129l-432 -1331h-127z" />
<glyph unicode="0" horiz-adv-x="987" d="M78 567q0 279 106.5 426.5t304.5 147.5q205 0 311.5 -146.5t106.5 -427.5t-104.5 -428t-308.5 -147q-199 0 -307.5 147t-108.5 428zM246 567q0 -211 62.5 -308t185.5 -97t185 97t62 308q0 205 -56 306.5t-191 101.5q-129 0 -188.5 -101.5t-59.5 -306.5z" />
<glyph unicode="1" horiz-adv-x="419" d="M49 874v158q123 2 129 105h141v-1137h-167v874h-103z" />
<glyph unicode="2" horiz-adv-x="833" d="M84 0v90q0 100 16.5 176t48 133.5t81 100.5t114.5 82q43 25 84 42t75 40.5t54.5 59.5t20.5 97q0 141 -154 142q-70 0 -122 -24t-97 -95l-113 147q59 78 142 115t200 37q135 0 224.5 -80t89.5 -234q0 -82 -21.5 -140t-60.5 -102t-90.5 -77t-112.5 -64 q-88 -45 -137.5 -115.5t-49.5 -162.5h472v-168h-664z" />
<glyph unicode="3" horiz-adv-x="792" d="M70 156l143 102q45 -94 170 -94q72 0 119 46t47 124q0 104 -49 149t-127 45h-68v168h68q57 0 93 38t36 114q0 59 -35 94t-90 35q-51 0 -74.5 -18.5t-46.5 -51.5l-139 58q6 31 27.5 61.5t56.5 57t81 43t99 16.5q117 0 195.5 -74t78.5 -209q0 -82 -26.5 -144.5t-87.5 -92.5 q33 -12 64.5 -37t57 -61t41 -84t15.5 -105q0 -154 -89 -247t-249 -95q-223 0 -311 162z" />
<glyph unicode="4" horiz-adv-x="862" d="M43 291v196l430 648h199v-676h123v-168h-123v-293h-168v293h-461zM209 459h295v450z" />
<glyph unicode="5" horiz-adv-x="860" d="M82 66l92 172q59 -45 114.5 -62.5t108.5 -17.5q98 0 161 55t63 160q0 45 -15.5 85t-42 69.5t-59.5 47t-70 17.5q-45 0 -88 -18.5t-82 -61.5l-166 70l11.5 121.5l11.5 122t11 138.5l11 171h572v-168h-426l-23 -265q41 35 85 48.5t89 13.5q160 0 251 -103.5t91 -289.5 q0 -96 -28.5 -168t-79.5 -120t-121 -72.5t-152 -24.5q-98 0 -175.5 17.5t-143.5 62.5z" />
<glyph unicode="6" horiz-adv-x="813" d="M72 436q0 139 34.5 265t98 222.5t149.5 155t189 62.5l26 -160q-117 -10 -209 -100t-120 -265q31 53 92 88t117 35q66 0 120 -26.5t93.5 -73.5t61 -114.5t21.5 -147.5q0 -193 -94 -290t-254 -97q-150 0 -237.5 117.5t-87.5 328.5zM238 367q0 -98 45 -153.5t125 -55.5 q82 0 134 54t52 153q0 98 -49 156.5t-129 58.5q-82 0 -130 -57.5t-48 -155.5z" />
<glyph unicode="7" horiz-adv-x="796" d="M68 967v168h677v-195q-74 -66 -136 -168t-106 -226t-69.5 -264.5t-27.5 -281.5h-181q8 145 33 284.5t64.5 264.5t96 231.5t128.5 186.5h-479z" />
<glyph unicode="8" horiz-adv-x="833" d="M74 344q0 55 13 106.5t36.5 92.5t55.5 69.5t69 38.5q-55 41 -76.5 97.5t-21.5 121.5q0 125 69.5 199t192.5 74q129 0 201.5 -66.5t72.5 -208.5q0 -66 -23.5 -124t-89.5 -99q45 -10 80 -38.5t57.5 -69.5t35 -91.5t12.5 -101.5q0 -166 -94.5 -258t-249.5 -92 q-154 0 -247 92t-93 258zM227 344q0 -98 53.5 -149.5t135.5 -51.5q86 0 138 48.5t52 152.5q0 209 -190 209q-86 0 -137.5 -51.5t-51.5 -157.5zM287 852q0 -66 34.5 -101.5t94.5 -35.5q59 0 92 39t33 98q0 66 -30 104.5t-95 38.5q-66 0 -97.5 -38.5t-31.5 -104.5z" />
<glyph unicode="9" horiz-adv-x="817" d="M66 752q0 193 93 292t259 99q154 0 239.5 -120t85.5 -331q0 -139 -35.5 -265t-98 -222t-149.5 -154.5t-192 -62.5l-20 159q55 4 108.5 30t97.5 72t74.5 111.5t42.5 151.5q-27 -53 -87 -88t-119 -35q-68 0 -122.5 26.5t-94 74t-61 115t-21.5 147.5zM223 764 q0 -98 47 -156.5t125 -58.5q82 0 130 57.5t48 155.5t-45 154.5t-125 56.5t-130 -55.5t-50 -153.5z" />
<glyph unicode=":" horiz-adv-x="358" d="M84 115q0 47 27.5 80.5t68.5 33.5q37 0 63.5 -33.5t26.5 -80.5t-26.5 -81t-63.5 -34q-41 0 -68.5 34t-27.5 81zM84 731q0 47 27.5 80t68.5 33q37 0 63.5 -33t26.5 -80q0 -49 -26.5 -82t-63.5 -33q-41 0 -68.5 33t-27.5 82z" />
<glyph unicode=";" horiz-adv-x="329" d="M63 115q0 47 26 80.5t69 33.5q37 0 65.5 -33.5t28.5 -80.5q0 -106 -39 -175t-117 -79v24q45 14 67.5 41t24.5 74h-34q-41 0 -66 33t-25 82zM63 731q0 47 26 80t69 33q37 0 65.5 -33t28.5 -80q0 -49 -27.5 -82t-66.5 -33q-45 0 -70 33t-25 82z" />
<glyph unicode="&#x3c;" horiz-adv-x="911" d="M47 616l447 414q8 12 24 12q23 0 23 -26v-15l-39 -221h358v-327h-358l39 -220v-14q0 -27 -23 -26q-16 0 -24 12z" />
<glyph unicode="=" horiz-adv-x="591" d="M35 358v170h518v-170h-518zM35 614v168h518v-168h-518z" />
<glyph unicode="&#x3e;" horiz-adv-x="911" d="M51 453v327h355l-37 236q0 27 20 26q14 0 27 -12l448 -414l-448 -411q-12 -12 -27 -12q-20 0 -20 26l37 234h-355z" />
<glyph unicode="?" horiz-adv-x="716" d="M59 1020q51 70 128 97.5t182 27.5q131 0 212 -75t81 -216q0 -53 -14.5 -95t-38 -78t-54.5 -67l-63 -61q-31 -29 -46.5 -53.5t-22.5 -50t-9 -56.5t-4 -71h-170v14q0 104 33.5 187t97.5 141q33 31 54 53t34.5 41.5t18.5 42t5 53.5q0 57 -31.5 87t-86.5 30 q-68 0 -123.5 -19.5t-96.5 -70.5zM229 115q0 47 29 80.5t68 33.5q41 0 66.5 -33.5t25.5 -80.5t-25.5 -81t-66.5 -34q-39 0 -68 34t-29 81z" />
<glyph unicode="@" horiz-adv-x="987" d="M70 528q0 121 33.5 215.5t92 159t136.5 98t168 33.5q424 0 424 -487q0 -35 -4.5 -90.5t-22.5 -108.5t-56 -92t-108 -39q-47 0 -83 15.5t-52 60.5q-16 -16 -47 -27.5t-70 -11.5q-68 0 -119 45t-51 131t45 132t123 46q23 0 51.5 -6t53.5 -22q-4 57 -28 81.5t-71 24.5 q-33 0 -73 -41l-54 82q29 27 62 42t80 15q76 0 122 -43t46 -135v-225q0 -78 67 -78q20 0 40 8t35 34t25.5 75t10.5 129q0 84 -18.5 157.5t-60.5 128t-107.5 86t-159.5 31.5q-74 0 -138.5 -28.5t-111.5 -83t-75 -133t-28 -179.5q0 -100 18.5 -182t55.5 -139t94.5 -89 t135.5 -32v-80q-102 0 -174 42t-118 113.5t-67.5 167t-21.5 199.5zM403 430q0 -78 86 -78q29 0 51.5 16.5t34.5 39.5v73q-29 20 -51 26.5t-28 6.5q-93 0 -93 -84z" />
<glyph unicode="A" horiz-adv-x="923" d="M10 0l334 1135h236l333 -1135h-180l-59 207h-424l-57 -207h-183zM303 399h315l-159 564z" />
<glyph unicode="B" horiz-adv-x="915" d="M96 0v1135h365q61 0 114.5 -19.5t94.5 -58.5t64.5 -95.5t23.5 -130.5t-28 -127t-75 -90q35 -6 69 -26.5t59.5 -54t42 -80.5t16.5 -109q0 -160 -97.5 -252t-277.5 -92h-371zM264 168h236q68 0 111.5 45t43.5 123t-43 120t-108 42h-240v-330zM264 666h201q51 0 89 46 t38 107q0 63 -37 105.5t-90 42.5h-201v-301z" />
<glyph unicode="C" horiz-adv-x="987" d="M76 567q0 125 31.5 230.5t91 182.5t144.5 121t192 44q260 0 378 -205l-155 -98q-45 59 -99.5 86.5t-123.5 27.5q-129 0 -205 -105.5t-76 -283.5q0 -84 21.5 -155.5t59.5 -123.5t91 -82t115 -30q59 0 118.5 30t98.5 70l145 -98q-125 -193 -368 -192q-100 0 -184.5 44 t-146 121.5t-95 184t-33.5 231.5z" />
<glyph unicode="D" horiz-adv-x="1017" d="M96 0v1135h318q117 0 214 -42t167.5 -118t109.5 -178.5t39 -225.5q0 -133 -41 -239.5t-113.5 -180t-171 -112.5t-215.5 -39h-307zM264 170h113q86 0 157.5 29.5t125 83t83 127t29.5 159.5q0 88 -29.5 162t-83 126t-125 81t-157.5 29h-113v-797z" />
<glyph unicode="E" horiz-adv-x="788" d="M96 0v1135h604v-168h-436v-301h273v-168h-273v-330h436v-168h-604z" />
<glyph unicode="F" horiz-adv-x="739" d="M96 0v1135h604v-168h-436v-301h281v-168h-281v-498h-168z" />
<glyph unicode="G" horiz-adv-x="1044" d="M78 567q0 270 117.5 426t339.5 156q129 0 223 -48t160 -161l-164 -111q-31 61 -95.5 99.5t-123.5 38.5q-135 0 -207 -97.5t-72 -302.5q0 -88 19.5 -161.5t56.5 -128t88 -85t115 -30.5q92 0 160.5 61.5t74.5 177.5h-219v168h422v-73q0 -98 -34 -189.5t-92.5 -162 t-139 -113.5t-172.5 -43q-102 0 -186.5 44t-145 121.5t-93 183t-32.5 230.5z" />
<glyph unicode="H" horiz-adv-x="966" d="M96 0v1135h168v-469h436v469h168v-1135h-168v498h-436v-498h-168z" />
<glyph unicode="I" horiz-adv-x="366" d="M96 0v1135h168v-1135h-168z" />
<glyph unicode="J" horiz-adv-x="618" d="M43 4v164q43 -6 80 -6q57 0 102 16.5t76 54t47.5 100t16.5 154.5v648h167v-723q0 -78 -27.5 -153t-76.5 -133t-117.5 -94t-150.5 -36h-45q-23 0 -42.5 2t-29.5 6z" />
<glyph unicode="K" horiz-adv-x="972" d="M96 0v1135h168v-611l402 611h202l-329 -492l354 -643h-193l-272 475l-164 -244v-231h-168z" />
<glyph unicode="L" horiz-adv-x="774" d="M96 0v1135h168v-967h473v-168h-641z" />
<glyph unicode="M" horiz-adv-x="1134" d="M96 0v1135h232l247 -686l244 686h217v-1135h-168v827l-293 -827l-311 829v-829h-168z" />
<glyph unicode="N" horiz-adv-x="970" d="M90 0v1135h209l412 -809v809h168v-1135h-193l-428 844v-844h-168z" />
<glyph unicode="O" horiz-adv-x="1067" d="M78 567q0 135 33.5 241.5t93 180.5t142.5 113t179 39q102 0 187.5 -38t147 -111.5t95 -180t33.5 -244.5q0 -135 -32.5 -242.5t-93 -181t-144.5 -112.5t-184 -39q-94 0 -177.5 38t-145.5 111.5t-98 180t-36 245.5zM246 567q0 -104 22.5 -180t61.5 -126t91 -74.5t114 -24.5 q123 0 205.5 99t82.5 306q0 205 -76.5 306.5t-211.5 101.5q-129 0 -209 -101.5t-80 -306.5z" />
<glyph unicode="P" horiz-adv-x="892" d="M96 0v1135h400q76 0 141 -21.5t112.5 -64.5t74 -107.5t26.5 -150.5q0 -166 -97.5 -255.5t-256.5 -89.5h-232v-446h-168zM264 614h244q174 0 174 170q0 182 -174 183h-244v-353z" />
<glyph unicode="Q" horiz-adv-x="1064" d="M72 567q0 135 34.5 241.5t94 180.5t141.5 113t178 39q100 0 185.5 -38t146.5 -111.5t96 -180t35 -244.5q0 -268 -133 -432l88 -119l-125 -100l-88 119q-90 -43 -197 -43q-94 0 -177 38t-145.5 111.5t-98 180t-35.5 245.5zM240 567q0 -104 22.5 -180t61 -126t91 -74.5 t113.5 -24.5q63 0 93 14l-150 203l125 106l152 -209q70 100 69 291q0 205 -76.5 306.5t-212.5 101.5q-129 0 -208.5 -101.5t-79.5 -306.5z" />
<glyph unicode="R" horiz-adv-x="935" d="M96 0v1135h400q174 0 264 -91.5t90 -252.5q0 -123 -58.5 -203t-156.5 -111l219 -477h-180l-211 446h-199v-446h-168zM264 614h244q174 0 174 170q0 182 -174 183h-244v-353z" />
<glyph unicode="S" horiz-adv-x="851" d="M80 80l57 170q53 -39 122 -63.5t157 -24.5t139 40t51 113q0 68 -75.5 121t-196.5 119q-51 27 -97.5 60.5t-81 73.5t-55 87t-20.5 101q0 59 26.5 108t72.5 84t107.5 54.5t133.5 19.5q135 0 202.5 -24.5t102.5 -53.5l-47 -172q-43 35 -103.5 55.5t-140.5 20.5 q-78 0 -132 -27t-54 -72q0 -35 28.5 -67.5t70.5 -63t91 -58.5l92 -52q43 -25 86 -55.5t78 -71.5t57.5 -97.5t22.5 -132.5q0 -53 -26.5 -103t-74.5 -89t-113.5 -63.5t-145.5 -24.5q-92 0 -174 20.5t-160 67.5z" />
<glyph unicode="T" horiz-adv-x="894" d="M57 967v168h781v-168h-295v-967h-187v967h-299z" />
<glyph unicode="U" horiz-adv-x="954" d="M90 461v674h168v-715q0 -141 60.5 -198.5t164.5 -57.5q100 0 155.5 57.5t55.5 198.5v715h170v-672q0 -223 -97 -345t-284 -122q-186 0 -289.5 121t-103.5 344z" />
<glyph unicode="V" horiz-adv-x="985" d="M37 1135h188l267 -979l258 979h190l-344 -1135h-215z" />
<glyph unicode="W" horiz-adv-x="1490" d="M51 1135h180l211 -932l205 932h184l211 -932l205 932h185l-273 -1135h-235l-183 856l-182 -856h-235z" />
<glyph unicode="X" horiz-adv-x="1036" d="M84 1135h192l242 -428l242 428h192l-338 -572l336 -563h-196l-236 424l-235 -424h-197l334 563z" />
<glyph unicode="Y" horiz-adv-x="966" d="M55 1135h191l239 -533l238 533h188l-331 -701v-434h-191v430z" />
<glyph unicode="Z" horiz-adv-x="897" d="M92 0v172l520 805h-520v158h711v-177l-522 -800h524v-158h-713z" />
<glyph unicode="[" horiz-adv-x="462" d="M96 -279v1461h316v-125h-205v-1211h205v-125h-316z" />
<glyph unicode="\" horiz-adv-x="675" d="M37 1182h133l467 -1413h-129z" />
<glyph unicode="]" horiz-adv-x="466" d="M51 -154h201v1211h-201v125h316v-1461h-316v125z" />
<glyph unicode="^" horiz-adv-x="798" d="M49 690q0 10 4 19l8 16l336 549l338 -549l10 -17q4 -7 5 -18q0 -25 -25 -24q-12 0 -14 2l-181 45v-434h-264v434l-174 -45q-2 -2 -16 -2q-27 -1 -27 24z" />
<glyph unicode="_" horiz-adv-x="903" d="M0 -27h903v-223h-903v223z" />
<glyph unicode="`" horiz-adv-x="319" d="M-53 1124h139l113 -198h-78z" />
<glyph unicode="a" horiz-adv-x="800" d="M61 297q0 147 85 225t223 78q63 0 105 -17.5t65 -43.5q0 55 -11.5 89t-32 52t-52 25.5t-70.5 7.5q-47 0 -81 -15.5t-61 -38.5l-75 129q41 45 102 70t137 25q141 0 227.5 -85t86.5 -233v-565h-168v76q-20 -31 -73.5 -57.5t-129.5 -26.5q-57 0 -107.5 20.5t-88.5 60.5 t-59.5 96t-21.5 128zM231 301q0 -61 46.5 -99t109.5 -38q20 0 46 6t49.5 17.5t40 27.5t16.5 39v111q0 16 -13.5 31.5t-34 26.5t-43 17t-42.5 6q-175 0 -175 -145z" />
<glyph unicode="b" horiz-adv-x="823" d="M96 0v1085l168 74v-356q20 35 68.5 58.5t130.5 23.5q150 0 232.5 -121t82.5 -338q0 -92 -22.5 -172t-65.5 -139.5t-103.5 -93t-135.5 -33.5q-66 0 -115 30.5t-72 73.5v-92h-168zM264 303q4 -20 18.5 -46t36 -47.5t49 -36.5t60.5 -15q45 0 81 21.5t60.5 57t36.5 85 t12 104.5q0 137 -43 213t-153 76q-61 0 -101 -46t-57 -114v-252z" />
<glyph unicode="c" horiz-adv-x="733" d="M51 444q0 96 26.5 178.5t75 141.5t114 92t145.5 33q78 0 138 -31t101 -80l-127 -108q-16 23 -40.5 35t-71.5 12q-88 0 -138.5 -76t-50.5 -199q0 -285 189 -284q76 0 125 53l139 -98q-104 -129 -264 -129q-84 0 -151.5 32.5t-114 93t-71 145.5t-24.5 189z" />
<glyph unicode="d" horiz-adv-x="837" d="M47 418q0 96 24.5 181t68.5 147.5t103.5 98.5t131.5 36q154 0 196 -82v286l168 74v-1157h-168v90q-18 -31 -61 -66.5t-127 -35.5q-74 0 -135.5 32.5t-105.5 90t-69.5 136.5t-25.5 169zM215 414q0 -111 48 -180.5t140 -69.5q55 0 105.5 33.5t62.5 103.5v248q-12 49 -56 95 t-107 46q-104 0 -148.5 -69.5t-44.5 -206.5z" />
<glyph unicode="e" d="M59 430q0 106 25 193.5t72 149t114.5 94t151.5 32.5q154 0 248 -112.5t94 -335.5v-64q0 -12 -1 -23.5t-3 -21.5h-529q0 -43 17.5 -77t45.5 -57.5t61.5 -34.5t68.5 -11q45 0 79 12t58 43l113 -104q-49 -66 -113.5 -94.5t-142.5 -28.5q-180 0 -269.5 114.5t-89.5 325.5z M231 510h363q-4 94 -51 158.5t-123 64.5q-82 0 -133.5 -64.5t-55.5 -158.5z" />
<glyph unicode="f" horiz-adv-x="518" d="M57 707v167h93q0 147 57 229.5t176 82.5q39 0 82 -6v-154q-35 8 -72 8q-55 0 -76.5 -33.5t-21.5 -126.5h172v-167h-164v-707h-153v707h-93z" />
<glyph unicode="g" horiz-adv-x="817" d="M51 451q0 88 25.5 166.5t69.5 137t104.5 92.5t132.5 34q74 0 115 -22.5t63 -51.5v67h168v-741q0 -98 -21.5 -185t-63.5 -154.5t-104.5 -114t-144.5 -60.5l-20 182q182 43 182 267q-12 -14 -25.5 -27.5t-33 -25t-49 -17.5t-74.5 -6q-84 0 -144.5 35.5t-100.5 98t-59.5 146 t-19.5 179.5zM225 449q0 -135 41 -211t127 -76q78 0 123 39t45 110v238q-2 45 -16.5 77.5t-35 52t-44 29t-43.5 9.5q-104 0 -150.5 -69.5t-46.5 -198.5z" />
<glyph unicode="h" horiz-adv-x="800" d="M94 0v1063l168 106v-417q20 55 72.5 93t138.5 38q55 0 104.5 -23.5t85 -65.5t56 -101.5t20.5 -129.5v-563h-168v545q0 86 -45 128t-110 42q-29 0 -56.5 -12.5t-49 -36t-35 -54t-13.5 -67.5v-545h-168z" />
<glyph unicode="i" horiz-adv-x="362" d="M86 1077q0 49 24.5 82t69.5 33q39 0 66.5 -33t27.5 -82q0 -47 -28.5 -79.5t-65.5 -32.5q-43 0 -68.5 32.5t-25.5 79.5zM96 0v874h168v-874h-168z" />
<glyph unicode="j" horiz-adv-x="346" d="M-51 -227q41 12 68.5 41.5t43 70.5t21.5 90.5t6 102.5v796h166v-892q0 -47 -13.5 -102.5t-43 -108t-76.5 -94.5t-115 -60zM78 1077q0 49 28.5 82t65.5 33q43 0 68.5 -33t25.5 -82q0 -47 -26.5 -79.5t-67.5 -32.5q-37 0 -65.5 32.5t-28.5 79.5z" />
<glyph unicode="k" horiz-adv-x="788" d="M96 0v1069l168 100v-626l236 293h215l-238 -289l271 -547h-193l-197 420l-94 -117v-303h-168z" />
<glyph unicode="l" horiz-adv-x="362" d="M92 0v1063l168 106v-1169h-168z" />
<glyph unicode="m" horiz-adv-x="1312" d="M96 0v870h168v-100q33 59 89.5 87t133.5 28q68 0 118 -27t73 -63q29 41 88 65.5t152 24.5q141 0 221 -84t80 -226v-575h-168v545q0 172 -150 172q-162 0 -162 -174v-543h-168v541q0 96 -43 134t-104 38q-68 0 -114 -41t-46 -127v-545h-168z" />
<glyph unicode="n" horiz-adv-x="833" d="M96 0v874h168v-108q31 59 87.5 88t131.5 29q117 0 187.5 -83t70.5 -225v-575h-168v543q0 86 -38.5 130t-108.5 44t-116 -44t-46 -130v-543h-168z" />
<glyph unicode="o" d="M66 436q0 94 25.5 177t71.5 143.5t110.5 95.5t142.5 35q80 0 144.5 -34t110.5 -94.5t71.5 -143.5t25.5 -179q0 -203 -92 -324.5t-260 -121.5q-166 0 -258 117.5t-92 328.5zM233 434q0 -272 185 -272q182 0 182 272q0 281 -184 281q-88 0 -135.5 -78t-47.5 -203z" />
<glyph unicode="p" horiz-adv-x="823" d="M96 -369v1243h168v-98q33 53 82 82t107 29q82 0 143 -32t101 -88t59.5 -133t19.5 -169q0 -102 -20.5 -189.5t-61.5 -152t-105.5 -100t-152.5 -35.5q-41 0 -89 17.5t-83 62.5v-326zM264 317q0 -25 14.5 -53t38 -51t54 -38t61.5 -15q51 0 87 22.5t57.5 62.5t30.5 94t9 118 q0 55 -9 103t-31.5 83t-58.5 54.5t-89 19.5q-27 0 -55.5 -14.5t-53 -37t-40 -51t-15.5 -55.5v-242z" />
<glyph unicode="q" horiz-adv-x="827" d="M51 465q0 92 19.5 169t59.5 133t100.5 88t144.5 32q57 0 106 -29t82 -82v98h168v-1132l-168 -107v433q-35 -45 -83 -62.5t-89 -17.5q-88 0 -152.5 35.5t-105.5 100t-61.5 152t-20.5 189.5zM211 457q0 -63 9 -117.5t30.5 -94.5t56.5 -62.5t88 -22.5q31 0 61.5 15t54.5 38 t38 51.5t14 52.5v242q0 27 -15.5 55.5t-40 51t-53 37t-55.5 14.5q-53 0 -89 -19.5t-58.5 -54.5t-31.5 -83t-9 -103z" />
<glyph unicode="r" horiz-adv-x="550" d="M96 0v874h168v-104q14 53 58.5 82t99.5 29q49 0 84 -23l-57 -168q-41 23 -62 23q-66 0 -94.5 -50.5t-28.5 -123.5v-539h-168z" />
<glyph unicode="s" horiz-adv-x="710" d="M55 63l62 156q37 -27 100.5 -43t120.5 -16q63 0 105 23.5t42 76.5q0 37 -26.5 61.5t-67.5 44t-91 38t-95 40.5q-61 29 -105.5 74t-44.5 123q0 66 28 112t74 75.5t103 43t119 13.5q70 0 134.5 -23.5t94.5 -44.5l-51 -174q-35 29 -85 49.5t-110 20.5q-20 0 -42.5 -2 t-42 -9.5t-32 -22.5t-12.5 -40t24 -41t60.5 -30.5t81.5 -30t88 -35.5q33 -16 63 -37t52.5 -48.5t36.5 -63.5t14 -83q0 -76 -26.5 -129t-72.5 -87t-108.5 -49t-132.5 -15q-59 0 -125.5 17t-132.5 56z" />
<glyph unicode="t" horiz-adv-x="561" d="M57 707v167h93v158l167 94v-252h158v-167h-158v-375q0 -55 5.5 -89t16.5 -52.5t30.5 -25.5t48.5 -7q18 0 38.5 6t43.5 14l-27 -176q-39 -8 -63.5 -11t-53.5 -3q-98 0 -152 73.5t-54 208.5v437h-93z" />
<glyph unicode="u" horiz-adv-x="837" d="M92 297v577h168v-520q0 -86 37 -139t109 -53q70 0 117.5 53t47.5 139v520h168v-874h-168v106q-33 -61 -92 -88.5t-129 -27.5q-117 0 -187.5 83t-70.5 224z" />
<glyph unicode="v" horiz-adv-x="782" d="M49 874h178l168 -653l164 653h178l-248 -874h-190z" />
<glyph unicode="w" horiz-adv-x="1286" d="M76 874h180l150 -622l145 622h184l150 -622l145 622h180l-231 -874h-191l-143 608l-145 -608h-191z" />
<glyph unicode="x" horiz-adv-x="720" d="M25 874h194l150 -290l149 290h195l-252 -438l250 -436h-193l-149 299l-150 -299h-192l249 436z" />
<glyph unicode="y" horiz-adv-x="804" d="M66 874h178l168 -653l163 653h179l-357 -1243h-176l105 365z" />
<glyph unicode="z" horiz-adv-x="755" d="M94 0v139l373 578h-354v157h571v-137l-375 -579h381v-158h-596z" />
<glyph unicode="{" horiz-adv-x="741" d="M39 385v131q137 6 195.5 69.5t58.5 209.5v116q0 270 237 271h142v-113h-6q-70 0 -114 -9t-69.5 -41t-35 -93.5t-9.5 -165.5q0 -96 -51 -181t-154 -126q104 -53 154.5 -124t50.5 -186q0 -104 8.5 -165.5t33 -93t68.5 -41t116 -9.5h8v-113h-142q-238 0 -237 271v114 q0 150 -58.5 212.5t-195.5 66.5z" />
<glyph unicode="|" horiz-adv-x="264" d="M96 -279v1461h68v-1461h-68z" />
<glyph unicode="}" horiz-adv-x="743" d="M68 -166h10q70 0 115 9.5t69.5 41t33.5 93t9 165.5q0 43 12.5 87t39 86t65.5 77t94 58q-111 49 -161 120.5t-50 188.5q0 104 -9 165.5t-33.5 93.5t-70 41t-114.5 9h-10v113h149q233 0 234 -271v-116q0 -143 59 -208t195 -71v-131q-135 0 -194.5 -61.5t-59.5 -217.5v-114 q0 -270 -234 -271h-149v113z" />
<glyph unicode="~" horiz-adv-x="2895" d="M127 0v600h2v96h137v58h-37v180h37v63h-37v76h899v-94q-14 27 -49 27q-94 0 -94 -158q0 -156 98 -156q31 0 64 39v-35h49v377h766v-53h70v53h737v-1073h-2642zM129 754v180h39v-180h-39zM129 997v76h39v-76h-39zM186 160h123v86h-45v301h-78v-387zM289 823 q0 -131 94 -131q29 0 51 17q0 -47 -57 -47h-31v-62h43q113 12 113 145v252h-68v-186q0 -53 -41 -53q-39 0 -39 53v186h-65v-174zM340 160h76v73h26v-73h82v141l-53 246h-84l-47 -246v-141zM416 291v39l12 102h4l10 -102v-39h-26zM524 600h68v115q14 -25 49 -25q94 0 94 156 t-98 155q-29 0 -64 -40v36h-49v-397zM555 160h78v170h22v-170h84v155l-30 43v7l30 41v100l-22 41h-162v-387zM586 793v102q12 31 43 31q43 0 43 -78q0 -88 -45 -88q-29 0 -41 33zM633 393v84h22v-84h-22zM750 844q0 -156 110 -156q113 0 113 156q0 160 -113 160 q-110 0 -110 -160zM770 160h78v73h24v-73h78v141l-49 246h-84l-47 -246v-141zM817 844q0 84 43 84q45 0 45 -84q0 -82 -45 -82q-43 0 -43 82zM848 291v39l10 102h6l8 -102v-39h-24zM983 160h162l22 43v127l-16 28v7l16 28v113l-22 41h-162v-387zM1049 846q0 88 45 88 q27 0 39 -33v-104q-12 -29 -41 -29q-43 0 -43 78zM1063 233v97h22v-97h-22zM1063 393v84h22v-84h-22zM1200 160h80v387h-80v-387zM1214 774q2 -86 93 -86q45 0 70.5 26.5t25.5 82.5h-31q-6 -39 -51 -39q-41 0 -41 28q0 37 41 37h20v37h-20q-41 0 -41 35q0 33 41 33 q35 0 51 -41h31v110h-31v-47q-23 53 -67 54q-88 0 -88 -89q0 -55 45 -73q-48 -19 -48 -68zM1311 160h131v86h-53v80h53v67h-53v72h53v82h-131v-387zM1425 696h91v58h-29v133q0 41 29 41q12 0 24 -13l23 68q-16 14 -35 16q-43 0 -64 -49v47h-39v-301zM1530 160h80v159h49v68 h-49v78h49v82h-129v-387zM1544 696h144v58h-39v125q0 47 39 47q31 0 30 -47v-183h105v58h-39v125q0 45 39 45q31 0 30 -45v-183h68v193q0 111 -96 110q-49 0 -64 -49q-18 49 -57 49q-35 0 -55 -49v47h-66v-243h-39v-58zM1692 203l20 -43h137l25 43v303l-23 41h-139l-20 -41 v-303zM1769 233v244h23v-244h-23zM1905 160h65v250h6l19 -250h119v387h-66v-250h-6l-23 250h-114v-387zM1931 934h31v-238h70v301h-101v-63zM2048 844q0 -154 104 -154q74 0 93 119h-33q-6 -47 -51 -47q-47 0 -47 82q0 84 47 84t51 -56h33v121h-33v-43q-25 53 -62 54 q-102 0 -102 -160zM2136 465h43v-305h80v305h43v82h-166v-82zM2324 203l23 -43h133l23 43v147l-27 43l-72 17v67h21v-49h78v78l-21 41h-135l-23 -41v-135l25 -41l76 -19v-78h-21v58h-80v-88z" />
<glyph unicode="&#xa1;" horiz-adv-x="342" d="M80 1024q0 47 24.5 81t65.5 34q39 0 66.5 -34t27.5 -81t-27.5 -81t-66.5 -34q-41 0 -65.5 34t-24.5 81zM102 4v483l17 306h102l17 -306v-483h-136z" />
<glyph unicode="&#xa2;" horiz-adv-x="798" d="M49 831q0 23 27 23l190 -45v434h264v-434l193 45q27 0 27 -23q0 -20 -15 -34l-338 -549l-336 549q-12 14 -12 34z" />
<glyph unicode="&#xa3;" horiz-adv-x="897" d="M82 0v168h20q29 0 52.5 24.5t39 63.5t23.5 86t8 92v92h-71v168h71v86q0 61 16.5 125t53.5 116t96.5 85t145.5 33t147 -30t94 -99l-123 -103q-41 66 -110 66q-86 0 -120 -41t-34 -129v-109h215v-168h-215v-155q0 -23 -6 -53.5t-17.5 -61.5t-28.5 -55.5t-40 -32.5h508v-168 h-725z" />
<glyph unicode="&#xa4;" horiz-adv-x="796" d="M72 1243l551 -96q12 -2 23 -9.5t11 -23.5t-16 -27l-156 -124l254 -308l-190 -231l-252 307l-102 -188l-10 -16q-3 -5 -9 -5q-12 0 -19 12.5t-10 28.5z" />
<glyph unicode="&#xa5;" horiz-adv-x="966" d="M55 1135h191l239 -519l238 519h188l-331 -709h165v-125h-165v-63h165v-123h-165v-115h-191v115h-186v123h186v63h-186v125h186z" />
<glyph unicode="&#xa6;" horiz-adv-x="911" d="M51 453v327h355l-37 236q0 27 20 26q14 0 27 -12l448 -414l-448 -411q-12 -12 -27 -12q-20 0 -20 26l37 234h-355z" />
<glyph unicode="&#xa7;" horiz-adv-x="798" d="M49 690q0 18 12 35l336 549l338 -545q14 -14 15 -39q0 -25 -27 -24q-20 0 -23 2l-170 45v-434h-264v434l-176 -45q-2 -2 -14 -2q-27 -1 -27 24z" />
<glyph unicode="&#xa8;" horiz-adv-x="688" d="M111 1065q0 41 25.5 67.5t66.5 26.5q39 0 66.5 -26.5t27.5 -67.5q0 -39 -27.5 -66.5t-66.5 -27.5q-41 0 -66.5 27.5t-25.5 66.5zM393 1065q0 41 28 67.5t64 26.5q41 0 67 -26.5t26 -67.5q0 -39 -26 -66.5t-67 -27.5q-37 0 -64.5 27.5t-27.5 66.5z" />
<glyph unicode="&#xa9;" horiz-adv-x="1300" d="M84 567q0 117 45 221.5t122 181.5t181.5 122t220.5 45q117 0 221.5 -45t181.5 -122t122 -181.5t45 -221.5t-45 -221t-122 -181t-181.5 -122t-221.5 -45t-221 45t-181 122t-122 181t-45 221zM152 565q0 -104 39.5 -196.5t107.5 -160t160 -107.5t196 -40t196.5 40 t161 107.5t108.5 160t40 196.5t-40 196.5t-108.5 162t-160.5 109.5t-197 40q-104 0 -196 -40t-160 -109.5t-107.5 -162t-39.5 -196.5zM360 559q0 76 19.5 141.5t56.5 113.5t90.5 74.5t118.5 26.5q160 0 236 -137l-107 -69q-53 74 -129 73q-72 0 -115 -59t-43 -164 q0 -98 46.5 -159.5t113.5 -61.5q35 0 69 17.5t58 45.5l103 -69q-78 -127 -232 -127q-61 0 -113.5 26.5t-90.5 74.5t-59.5 112.5t-21.5 140.5z" />
<glyph unicode="&#xaa;" horiz-adv-x="800" d="M61 297q0 147 85 225t223 78q63 0 105 -17.5t65 -43.5q0 55 -11.5 89t-32 52t-52 25.5t-70.5 7.5q-47 0 -81 -15.5t-61 -38.5l-75 129q41 45 102 70t137 25q141 0 227.5 -85t86.5 -233v-565h-168v76q-20 -31 -73.5 -57.5t-129.5 -26.5q-57 0 -107.5 20.5t-88.5 60.5 t-59.5 96t-21.5 128zM231 301q0 -61 46.5 -99t109.5 -38q20 0 46 6t49.5 17.5t40 27.5t16.5 39v111q0 16 -13.5 31.5t-34 26.5t-43 17t-42.5 6q-175 0 -175 -145z" />
<glyph unicode="&#xab;" horiz-adv-x="765" d="M84 555v121l319 166v-127l-208 -97l208 -98v-123zM387 555v121l320 166v-127l-209 -97l209 -98v-123z" />
<glyph unicode="&#xad;" horiz-adv-x="491" d="M96 528v168h295v-168h-295z" />
<glyph unicode="&#xae;" horiz-adv-x="1105" d="M96 723q0 88 34 167t95.5 138t145.5 94t184 35t186 -33.5t148.5 -92t97.5 -137.5t35 -171q0 -86 -36 -164t-98.5 -137.5t-148.5 -95t-184 -35.5q-100 0 -184 35.5t-145.5 95t-95.5 137.5t-34 164zM182 723q0 -66 25.5 -129.5t74 -112.5t117 -79.5t154.5 -30.5 q80 0 152.5 26.5t126 74.5t85 112.5t31.5 138.5q0 63 -29.5 126.5t-82 113t-125 80t-158.5 30.5t-154.5 -30.5t-117 -80t-74 -113t-25.5 -126.5zM412 481v469h168q66 0 105.5 -39t39.5 -110q0 -47 -18.5 -77t-59.5 -56l84 -187h-98l-80 172h-49v-172h-92zM504 750h78 q49 0 49 51q0 55 -49 55h-78v-106z" />
<glyph unicode="&#xaf;" horiz-adv-x="604" d="M88 950v137h426v-137h-426z" />
<glyph unicode="&#xb0;" horiz-adv-x="657" d="M76 909q0 51 18.5 96.5t51 79t78.5 53t102 19.5q55 0 101 -19.5t80 -52t53.5 -78.5t19.5 -98q0 -49 -19.5 -93t-53.5 -77.5t-81 -54t-100 -20.5q-55 0 -101.5 20.5t-79 54t-51 77.5t-18.5 93zM162 909q0 -61 43 -106t121 -45q76 0 124 45t48 106t-48.5 107.5t-123.5 46.5 q-78 0 -121 -46.5t-43 -107.5z" />
<glyph unicode="&#xb2;" horiz-adv-x="833" d="M84 0v90q0 100 16.5 176t48 133.5t81 100.5t114.5 82q43 25 84 42t75 40.5t54.5 59.5t20.5 97q0 141 -154 142q-70 0 -122 -24t-97 -95l-113 147q59 78 142 115t200 37q135 0 224.5 -80t89.5 -234q0 -82 -21.5 -140t-60.5 -102t-90.5 -77t-112.5 -64 q-88 -45 -137.5 -115.5t-49.5 -162.5h472v-168h-664z" />
<glyph unicode="&#xb3;" horiz-adv-x="792" d="M70 156l143 102q45 -94 170 -94q72 0 119 46t47 124q0 104 -49 149t-127 45h-68v168h68q57 0 93 38t36 114q0 59 -35 94t-90 35q-51 0 -74.5 -18.5t-46.5 -51.5l-139 58q6 31 27.5 61.5t56.5 57t81 43t99 16.5q117 0 195.5 -74t78.5 -209q0 -82 -26.5 -144.5t-87.5 -92.5 q33 -12 64.5 -37t57 -61t41 -84t15.5 -105q0 -154 -89 -247t-249 -95q-223 0 -311 162z" />
<glyph unicode="&#xb4;" horiz-adv-x="317" d="M106 930l113 198h139l-174 -198h-78z" />
<glyph unicode="&#xb5;" horiz-adv-x="851" d="M-31 -68q43 27 71 56.5t42 70.5t19 97.5t5 140.5v577h168v-520q0 -86 37 -139t109 -53q70 0 118 53t48 139v520h168v-632q0 -66 9 -88.5t46 -34.5l-57 -156q-66 18 -102 61.5t-52 100.5q-66 -135 -227 -135q-35 0 -63.5 10t-57.5 25q-20 -80 -60 -130.5t-118 -97.5z" />
<glyph unicode="&#xb8;" horiz-adv-x="370" d="M115 -248l20 70q16 -8 49 -8q57 0 58 28q0 16 -9.5 22.5t-33.5 6.5h-25q-4 0 -11 -1t-18 -3v147h66v-73q102 0 102 -93q0 -59 -30.5 -83.5t-96.5 -24.5q-23 0 -42 4t-29 8z" />
<glyph unicode="&#xb9;" horiz-adv-x="419" d="M49 874v158q123 2 129 105h141v-1137h-167v874h-103z" />
<glyph unicode="&#xba;" d="M66 436q0 94 25.5 177t71.5 143.5t110.5 95.5t142.5 35q80 0 144.5 -34t110.5 -94.5t71.5 -143.5t25.5 -179q0 -203 -92 -324.5t-260 -121.5q-166 0 -258 117.5t-92 328.5zM233 434q0 -272 185 -272q182 0 182 272q0 281 -184 281q-88 0 -135.5 -78t-47.5 -203z" />
<glyph unicode="&#xbb;" horiz-adv-x="790" d="M106 397v127l209 99l-209 96v123l320 -158v-121zM410 397v127l208 99l-208 96v123l319 -158v-121z" />
<glyph unicode="&#xbc;" horiz-adv-x="1130" d="M63 0l873 1135h86l-875 -1135h-84zM113 975v110q57 0 61 50h100v-584h-112v424h-49zM633 141v115l217 328h119v-330h61v-113h-61v-143h-113v143h-223zM758 254h98v149z" />
<glyph unicode="&#xbd;" horiz-adv-x="1224" d="M63 0l875 1135h86l-877 -1135h-84zM125 971v110q57 0 61 49h103v-583h-115v424h-49zM758 0v59q0 104 33.5 157.5t99.5 94.5q16 10 35.5 18.5t36 18.5t26.5 25.5t10 40.5q0 53 -61 53q-29 0 -52.5 -13.5t-49.5 -56.5l-78 101q72 90 186 90q74 0 121 -39t47 -133 q0 -68 -34 -107t-74 -67l-78 -57q-37 -28 -43 -72h229v-113h-354z" />
<glyph unicode="&#xbe;" horiz-adv-x="1126" d="M63 0l873 1135h86l-875 -1135h-84zM84 643l96 68q25 -53 76 -54q66 0 66 66q0 41 -19.5 60.5t-50.5 19.5h-49v112h49q41 0 41 58q0 47 -39 47q-41 0 -47 -41l-101 43q43 111 146 111q147 0 147 -154q0 -76 -45 -109q37 -27 58.5 -62.5t21.5 -82.5q0 -92 -46 -137 t-132 -47q-119 0 -172 102zM649 141v115l217 328h119v-330h62v-113h-62v-143h-113v143h-223zM774 254h98v149z" />
<glyph unicode="&#xbf;" horiz-adv-x="718" d="M57 307q0 53 6.5 92t19.5 70t34.5 57.5t54.5 55.5q14 12 35.5 32.5t43 54t39 80t21.5 109.5h162v-16q0 -63 -7 -110.5t-25.5 -87.5t-48.5 -78t-75 -83q-41 -39 -60 -81t-19 -83q0 -121 116 -120q53 0 118 29.5t106 72.5l79 -158q-98 -137 -299 -137q-135 0 -218 79 t-83 222zM299 1065q0 47 27.5 81t66.5 34t66.5 -34t27.5 -81t-27.5 -81t-66.5 -34t-66.5 34t-27.5 81z" />
<glyph unicode="&#xc0;" horiz-adv-x="923" d="M10 0l334 1135h236l333 -1135h-180l-59 207h-424l-57 -207h-183zM303 399h315l-159 564zM275 1384h139l113 -198h-78z" />
<glyph unicode="&#xc1;" horiz-adv-x="923" d="M10 0l334 1135h236l333 -1135h-180l-59 207h-424l-57 -207h-183zM303 399h315l-159 564zM397 1190l113 198h139l-174 -198h-78z" />
<glyph unicode="&#xc2;" horiz-adv-x="923" d="M10 0l334 1135h236l333 -1135h-180l-59 207h-424l-57 -207h-183zM303 399h315l-159 564zM233 1208l166 197h121l170 -197h-129l-101 133l-100 -133h-127z" />
<glyph unicode="&#xc3;" horiz-adv-x="923" d="M10 0l334 1135h236l333 -1135h-180l-59 207h-424l-57 -207h-183zM303 399h315l-159 564zM213 1261q31 57 68.5 82t84.5 25q37 0 60.5 -8t43 -19.5t38 -19.5t45.5 -8q59 0 92 69l63 -73q-37 -98 -149 -99q-29 0 -50.5 9.5t-42 20.5t-41 20.5t-42.5 9.5q-25 0 -49.5 -15.5 t-49.5 -54.5z" />
<glyph unicode="&#xc4;" horiz-adv-x="923" d="M10 0l334 1135h236l333 -1135h-180l-59 207h-424l-57 -207h-183zM303 399h315l-159 564zM228 1325q0 41 25.5 67.5t66.5 26.5q39 0 66.5 -26.5t27.5 -67.5q0 -39 -27.5 -66.5t-66.5 -27.5q-41 0 -66.5 27.5t-25.5 66.5zM510 1325q0 41 28 67.5t64 26.5q41 0 67 -26.5 t26 -67.5q0 -39 -26 -66.5t-67 -27.5q-37 0 -64.5 27.5t-27.5 66.5z" />
<glyph unicode="&#xc5;" horiz-adv-x="923" d="M10 0l334 1135h236l333 -1135h-180l-59 207h-424l-57 -207h-183zM303 399h315l-159 564zM355 1241q0 55 34.5 93t87.5 38t89 -38.5t36 -92.5q0 -53 -35.5 -87.5t-89.5 -34.5q-53 0 -87.5 34.5t-34.5 87.5zM400 1245q0 -37 23.5 -60t56.5 -23q35 0 59 23.5t24 59.5 q0 35 -25.5 59.5t-57.5 24.5q-31 0 -55.5 -24.5t-24.5 -59.5z" />
<glyph unicode="&#xc6;" horiz-adv-x="1306" d="M66 0l378 1135h770v-168h-364v-318h330v-168h-330v-313h364v-168h-565v479h-211l-157 -479h-215zM483 649h166v318h-59z" />
<glyph unicode="&#xc7;" horiz-adv-x="987" d="M76 567q0 125 31.5 230.5t91 182.5t144.5 121t192 44q260 0 378 -205l-155 -98q-45 59 -99.5 86.5t-123.5 27.5q-129 0 -205 -105.5t-76 -283.5q0 -84 21.5 -155.5t59.5 -123.5t91 -82t115 -30q59 0 118.5 30t98.5 70l145 -98q-125 -193 -368 -192q-100 0 -184.5 44 t-146 121.5t-95 184t-33.5 231.5zM412 -248l20 70q16 -8 49 -8q57 0 58 28q0 16 -9.5 22.5t-33.5 6.5h-25q-4 0 -11 -1t-18 -3v147h66v-73q102 0 102 -93q0 -59 -30.5 -83.5t-96.5 -24.5q-23 0 -42 4t-29 8z" />
<glyph unicode="&#xc8;" horiz-adv-x="788" d="M96 0v1135h604v-168h-436v-301h273v-168h-273v-330h436v-168h-604zM207 1384h139l113 -198h-78z" />
<glyph unicode="&#xc9;" horiz-adv-x="788" d="M96 0v1135h604v-168h-436v-301h273v-168h-273v-330h436v-168h-604zM329 1190l113 198h139l-174 -198h-78z" />
<glyph unicode="&#xca;" horiz-adv-x="788" d="M96 0v1135h604v-168h-436v-301h273v-168h-273v-330h436v-168h-604zM166 1208l166 197h121l170 -197h-129l-101 133l-100 -133h-127z" />
<glyph unicode="&#xcb;" horiz-adv-x="788" d="M96 0v1135h604v-168h-436v-301h273v-168h-273v-330h436v-168h-604zM160 1325q0 41 25.5 67.5t66.5 26.5q39 0 66.5 -26.5t27.5 -67.5q0 -39 -27.5 -66.5t-66.5 -27.5q-41 0 -66.5 27.5t-25.5 66.5zM442 1325q0 41 28 67.5t64 26.5q41 0 67 -26.5t26 -67.5 q0 -39 -26 -66.5t-67 -27.5q-37 0 -64.5 27.5t-27.5 66.5z" />
<glyph unicode="&#xcc;" horiz-adv-x="366" d="M96 0v1135h168v-1135h-168zM-4 1384h139l113 -198h-78z" />
<glyph unicode="&#xcd;" horiz-adv-x="366" d="M96 0v1135h168v-1135h-168zM118 1190l113 198h139l-174 -198h-78z" />
<glyph unicode="&#xce;" horiz-adv-x="366" d="M96 0v1135h168v-1135h-168zM-43 1208l166 197h121l170 -197h-129l-101 133l-100 -133h-127z" />
<glyph unicode="&#xcf;" horiz-adv-x="366" d="M96 0v1135h168v-1135h-168zM-47 1325q0 41 25.5 67.5t66.5 26.5q39 0 66.5 -26.5t27.5 -67.5q0 -39 -27.5 -66.5t-66.5 -27.5q-41 0 -66.5 27.5t-25.5 66.5zM235 1325q0 41 28 67.5t64 26.5q41 0 67 -26.5t26 -67.5q0 -39 -26 -66.5t-67 -27.5q-37 0 -64.5 27.5 t-27.5 66.5z" />
<glyph unicode="&#xd0;" horiz-adv-x="1017" d="M96 0v1135h318q117 0 214 -42t167.5 -118t109.5 -178.5t39 -225.5q0 -133 -41 -239.5t-113.5 -180t-171 -112.5t-215.5 -39h-307zM264 170h113q86 0 157.5 29.5t125 83t83 127t29.5 159.5q0 88 -29.5 162t-83 126t-125 81t-157.5 29h-113v-797zM-35 456v137h426v-137 h-426z" />
<glyph unicode="&#xd1;" horiz-adv-x="970" d="M90 0v1135h209l412 -809v809h168v-1135h-193l-428 844v-844h-168zM238 1261q31 57 68.5 82t84.5 25q37 0 60.5 -8t43 -19.5t38 -19.5t45.5 -8q59 0 92 69l63 -73q-37 -98 -149 -99q-29 0 -50.5 9.5t-42 20.5t-41 20.5t-42.5 9.5q-25 0 -49.5 -15.5t-49.5 -54.5z" />
<glyph unicode="&#xd2;" horiz-adv-x="1067" d="M78 567q0 135 33.5 241.5t93 180.5t142.5 113t179 39q102 0 187.5 -38t147 -111.5t95 -180t33.5 -244.5q0 -135 -32.5 -242.5t-93 -181t-144.5 -112.5t-184 -39q-94 0 -177.5 38t-145.5 111.5t-98 180t-36 245.5zM246 567q0 -104 22.5 -180t61.5 -126t91 -74.5t114 -24.5 q123 0 205.5 99t82.5 306q0 205 -76.5 306.5t-211.5 101.5q-129 0 -209 -101.5t-80 -306.5zM346 1384h139l113 -198h-78z" />
<glyph unicode="&#xd3;" horiz-adv-x="1067" d="M78 567q0 135 33.5 241.5t93 180.5t142.5 113t179 39q102 0 187.5 -38t147 -111.5t95 -180t33.5 -244.5q0 -135 -32.5 -242.5t-93 -181t-144.5 -112.5t-184 -39q-94 0 -177.5 38t-145.5 111.5t-98 180t-36 245.5zM246 567q0 -104 22.5 -180t61.5 -126t91 -74.5t114 -24.5 q123 0 205.5 99t82.5 306q0 205 -76.5 306.5t-211.5 101.5q-129 0 -209 -101.5t-80 -306.5zM468 1190l113 198h139l-174 -198h-78z" />
<glyph unicode="&#xd4;" horiz-adv-x="1067" d="M78 567q0 135 33.5 241.5t93 180.5t142.5 113t179 39q102 0 187.5 -38t147 -111.5t95 -180t33.5 -244.5q0 -135 -32.5 -242.5t-93 -181t-144.5 -112.5t-184 -39q-94 0 -177.5 38t-145.5 111.5t-98 180t-36 245.5zM246 567q0 -104 22.5 -180t61.5 -126t91 -74.5t114 -24.5 q123 0 205.5 99t82.5 306q0 205 -76.5 306.5t-211.5 101.5q-129 0 -209 -101.5t-80 -306.5zM305 1208l166 197h121l170 -197h-129l-101 133l-100 -133h-127z" />
<glyph unicode="&#xd5;" horiz-adv-x="1067" d="M78 567q0 135 33.5 241.5t93 180.5t142.5 113t179 39q102 0 187.5 -38t147 -111.5t95 -180t33.5 -244.5q0 -135 -32.5 -242.5t-93 -181t-144.5 -112.5t-184 -39q-94 0 -177.5 38t-145.5 111.5t-98 180t-36 245.5zM246 567q0 -104 22.5 -180t61.5 -126t91 -74.5t114 -24.5 q123 0 205.5 99t82.5 306q0 205 -76.5 306.5t-211.5 101.5q-129 0 -209 -101.5t-80 -306.5zM285 1261q31 57 68.5 82t84.5 25q37 0 60.5 -8t43 -19.5t38 -19.5t45.5 -8q59 0 92 69l63 -73q-37 -98 -149 -99q-29 0 -50.5 9.5t-42 20.5t-41 20.5t-42.5 9.5q-25 0 -49.5 -15.5 t-49.5 -54.5z" />
<glyph unicode="&#xd6;" horiz-adv-x="1067" d="M78 567q0 135 33.5 241.5t93 180.5t142.5 113t179 39q102 0 187.5 -38t147 -111.5t95 -180t33.5 -244.5q0 -135 -32.5 -242.5t-93 -181t-144.5 -112.5t-184 -39q-94 0 -177.5 38t-145.5 111.5t-98 180t-36 245.5zM246 567q0 -104 22.5 -180t61.5 -126t91 -74.5t114 -24.5 q123 0 205.5 99t82.5 306q0 205 -76.5 306.5t-211.5 101.5q-129 0 -209 -101.5t-80 -306.5zM308 1294q0 41 25.5 67.5t66.5 26.5q39 0 66.5 -26.5t27.5 -67.5q0 -39 -27.5 -66.5t-66.5 -27.5q-41 0 -66.5 27.5t-25.5 66.5zM590 1294q0 41 28 67.5t64 26.5q41 0 67 -26.5 t26 -67.5q0 -39 -26 -66.5t-67 -27.5q-37 0 -64.5 27.5t-27.5 66.5z" />
<glyph unicode="&#xd8;" horiz-adv-x="1067" d="M78 567q0 135 33.5 241.5t93 180.5t142.5 113t179 39q68 0 126.5 -14.5t109.5 -49.5l33 56h137l-78 -134q135 -164 135 -432q0 -133 -32.5 -239.5t-91 -181t-141.5 -114.5t-181 -40q-139 0 -240 67l-35 -59h-133l80 137q-137 162 -137 430zM246 567q0 -172 59 -274 l375 643q-57 39 -145 39q-129 0 -209 -101.5t-80 -306.5zM389 205q63 -43 146 -43q123 0 205.5 99t82.5 306q0 176 -59 279z" />
<glyph unicode="&#xd9;" horiz-adv-x="954" d="M90 461v674h168v-715q0 -141 60.5 -198.5t164.5 -57.5q100 0 155.5 57.5t55.5 198.5v715h170v-672q0 -223 -97 -345t-284 -122q-186 0 -289.5 121t-103.5 344zM289 1384h139l113 -198h-78z" />
<glyph unicode="&#xda;" horiz-adv-x="954" d="M90 461v674h168v-715q0 -141 60.5 -198.5t164.5 -57.5q100 0 155.5 57.5t55.5 198.5v715h170v-672q0 -223 -97 -345t-284 -122q-186 0 -289.5 121t-103.5 344zM411 1190l113 198h139l-174 -198h-78z" />
<glyph unicode="&#xdb;" horiz-adv-x="954" d="M90 461v674h168v-715q0 -141 60.5 -198.5t164.5 -57.5q100 0 155.5 57.5t55.5 198.5v715h170v-672q0 -223 -97 -345t-284 -122q-186 0 -289.5 121t-103.5 344zM248 1208l166 197h121l170 -197h-129l-101 133l-100 -133h-127z" />
<glyph unicode="&#xdc;" horiz-adv-x="954" d="M90 461v674h168v-715q0 -141 60.5 -198.5t164.5 -57.5q100 0 155.5 57.5t55.5 198.5v715h170v-672q0 -223 -97 -345t-284 -122q-186 0 -289.5 121t-103.5 344zM244 1325q0 41 25.5 67.5t66.5 26.5q39 0 66.5 -26.5t27.5 -67.5q0 -39 -27.5 -66.5t-66.5 -27.5 q-41 0 -66.5 27.5t-25.5 66.5zM526 1325q0 41 28 67.5t64 26.5q41 0 67 -26.5t26 -67.5q0 -39 -26 -66.5t-67 -27.5q-37 0 -64.5 27.5t-27.5 66.5z" />
<glyph unicode="&#xdd;" horiz-adv-x="966" d="M55 1135h191l239 -533l238 533h188l-331 -701v-434h-191v430zM417 1190l113 198h139l-174 -198h-78z" />
<glyph unicode="&#xde;" horiz-adv-x="841" d="M96 0v1135h168v-181h125q90 0 166 -22.5t130 -67.5t85 -111.5t31 -152.5q0 -92 -34 -163.5t-92.5 -122t-134 -77t-157.5 -26.5h-119v-211h-168zM264 379h111q74 0 122 13.5t75.5 41t39 68.5t11.5 94q0 55 -22.5 91t-58.5 58.5t-82 31.5t-95 9h-101v-407z" />
<glyph unicode="&#xdf;" horiz-adv-x="903" d="M92 0v766q0 186 85 281.5t239 95.5q68 0 128 -20.5t106 -58.5t73 -92t27 -124q0 -49 -14.5 -86t-37 -64.5t-51.5 -46t-59 -30.5q119 -16 180 -87t61 -176q0 -78 -22.5 -143t-65.5 -112.5t-106.5 -75t-145.5 -27.5h-96v168h88q78 0 129.5 46t51.5 138q0 88 -63.5 132 t-180.5 44v154q96 0 130 37t34 129q0 63 -46.5 95t-123.5 32q-152 0 -152 -168v-807h-168z" />
<glyph unicode="&#xe0;" horiz-adv-x="800" d="M61 297q0 147 85 225t223 78q63 0 105 -17.5t65 -43.5q0 55 -11.5 89t-32 52t-52 25.5t-70.5 7.5q-47 0 -81 -15.5t-61 -38.5l-75 129q41 45 102 70t137 25q141 0 227.5 -85t86.5 -233v-565h-168v76q-20 -31 -73.5 -57.5t-129.5 -26.5q-57 0 -107.5 20.5t-88.5 60.5 t-59.5 96t-21.5 128zM231 301q0 -61 46.5 -99t109.5 -38q20 0 46 6t49.5 17.5t40 27.5t16.5 39v111q0 16 -13.5 31.5t-34 26.5t-43 17t-42.5 6q-175 0 -175 -145zM213 1124h139l113 -198h-78z" />
<glyph unicode="&#xe1;" horiz-adv-x="800" d="M61 297q0 147 85 225t223 78q63 0 105 -17.5t65 -43.5q0 55 -11.5 89t-32 52t-52 25.5t-70.5 7.5q-47 0 -81 -15.5t-61 -38.5l-75 129q41 45 102 70t137 25q141 0 227.5 -85t86.5 -233v-565h-168v76q-20 -31 -73.5 -57.5t-129.5 -26.5q-57 0 -107.5 20.5t-88.5 60.5 t-59.5 96t-21.5 128zM231 301q0 -61 46.5 -99t109.5 -38q20 0 46 6t49.5 17.5t40 27.5t16.5 39v111q0 16 -13.5 31.5t-34 26.5t-43 17t-42.5 6q-175 0 -175 -145zM335 930l113 198h139l-174 -198h-78z" />
<glyph unicode="&#xe2;" horiz-adv-x="800" d="M61 297q0 147 85 225t223 78q63 0 105 -17.5t65 -43.5q0 55 -11.5 89t-32 52t-52 25.5t-70.5 7.5q-47 0 -81 -15.5t-61 -38.5l-75 129q41 45 102 70t137 25q141 0 227.5 -85t86.5 -233v-565h-168v76q-20 -31 -73.5 -57.5t-129.5 -26.5q-57 0 -107.5 20.5t-88.5 60.5 t-59.5 96t-21.5 128zM231 301q0 -61 46.5 -99t109.5 -38q20 0 46 6t49.5 17.5t40 27.5t16.5 39v111q0 16 -13.5 31.5t-34 26.5t-43 17t-42.5 6q-175 0 -175 -145zM172 948l166 197h121l170 -197h-129l-101 133l-100 -133h-127z" />
<glyph unicode="&#xe3;" horiz-adv-x="800" d="M61 297q0 147 85 225t223 78q63 0 105 -17.5t65 -43.5q0 55 -11.5 89t-32 52t-52 25.5t-70.5 7.5q-47 0 -81 -15.5t-61 -38.5l-75 129q41 45 102 70t137 25q141 0 227.5 -85t86.5 -233v-565h-168v76q-20 -31 -73.5 -57.5t-129.5 -26.5q-57 0 -107.5 20.5t-88.5 60.5 t-59.5 96t-21.5 128zM231 301q0 -61 46.5 -99t109.5 -38q20 0 46 6t49.5 17.5t40 27.5t16.5 39v111q0 16 -13.5 31.5t-34 26.5t-43 17t-42.5 6q-175 0 -175 -145zM152 1001q31 57 68.5 82t84.5 25q37 0 60.5 -8t43 -19.5t38 -19.5t45.5 -8q59 0 92 69l63 -73 q-37 -98 -149 -99q-29 0 -50.5 9.5t-42 20.5t-41 20.5t-42.5 9.5q-25 0 -49.5 -15.5t-49.5 -54.5z" />
<glyph unicode="&#xe4;" horiz-adv-x="800" d="M61 297q0 147 85 225t223 78q63 0 105 -17.5t65 -43.5q0 55 -11.5 89t-32 52t-52 25.5t-70.5 7.5q-47 0 -81 -15.5t-61 -38.5l-75 129q41 45 102 70t137 25q141 0 227.5 -85t86.5 -233v-565h-168v76q-20 -31 -73.5 -57.5t-129.5 -26.5q-57 0 -107.5 20.5t-88.5 60.5 t-59.5 96t-21.5 128zM231 301q0 -61 46.5 -99t109.5 -38q20 0 46 6t49.5 17.5t40 27.5t16.5 39v111q0 16 -13.5 31.5t-34 26.5t-43 17t-42.5 6q-175 0 -175 -145zM191 1045q0 41 25.5 67.5t66.5 26.5q39 0 66.5 -26.5t27.5 -67.5q0 -39 -27.5 -66.5t-66.5 -27.5 q-41 0 -66.5 27.5t-25.5 66.5zM473 1045q0 41 28 67.5t64 26.5q41 0 67 -26.5t26 -67.5q0 -39 -26 -66.5t-67 -27.5q-37 0 -64.5 27.5t-27.5 66.5z" />
<glyph unicode="&#xe5;" horiz-adv-x="800" d="M61 297q0 147 85 225t223 78q63 0 105 -17.5t65 -43.5q0 55 -11.5 89t-32 52t-52 25.5t-70.5 7.5q-47 0 -81 -15.5t-61 -38.5l-75 129q41 45 102 70t137 25q141 0 227.5 -85t86.5 -233v-565h-168v76q-20 -31 -73.5 -57.5t-129.5 -26.5q-57 0 -107.5 20.5t-88.5 60.5 t-59.5 96t-21.5 128zM231 301q0 -61 46.5 -99t109.5 -38q20 0 46 6t49.5 17.5t40 27.5t16.5 39v111q0 16 -13.5 31.5t-34 26.5t-43 17t-42.5 6q-175 0 -175 -145zM301 989q0 55 34.5 93t87.5 38t89 -38.5t36 -92.5q0 -53 -35.5 -87.5t-89.5 -34.5q-53 0 -87.5 34.5 t-34.5 87.5zM346 993q0 -37 23.5 -60t56.5 -23q35 0 59 23.5t24 59.5q0 35 -25.5 59.5t-57.5 24.5q-31 0 -55.5 -24.5t-24.5 -59.5z" />
<glyph unicode="&#xe6;" horiz-adv-x="1144" d="M61 297q0 147 64.5 225t202.5 78q25 0 41 -2t30.5 -9t27.5 -19.5t30 -30.5q0 55 -4 89t-17.5 52t-38 25.5t-65.5 7.5q-45 0 -63.5 -14.5t-37.5 -39.5l-75 129q41 45 82 70t116 25q68 0 117 -21.5t84 -60.5q82 98 225 98q299 0 299 -422v-135h-448v-4q0 -86 43 -131 t108 -45q45 0 65.5 9t53.5 46l88 -106q-45 -66 -109.5 -94.5t-123.5 -28.5q-66 0 -118 32.5t-87 83.5q-33 -66 -95.5 -89t-133.5 -23q-117 0 -189 81t-72 224zM231 301q0 -61 26 -99t89 -38q41 0 76 22.5t35 67.5v111q0 35 -25.5 58t-66.5 23q-86 0 -110 -34.5t-24 -110.5z M631 510h280q-4 94 -31.5 158.5t-101.5 64.5q-41 0 -68.5 -17.5t-44 -47t-24.5 -70.5t-10 -88z" />
<glyph unicode="&#xe7;" horiz-adv-x="733" d="M51 444q0 96 26.5 178.5t75 141.5t114 92t145.5 33q78 0 138 -31t101 -80l-127 -108q-16 23 -40.5 35t-71.5 12q-88 0 -138.5 -76t-50.5 -199q0 -285 189 -284q76 0 125 53l139 -98q-104 -129 -264 -129q-84 0 -151.5 32.5t-114 93t-71 145.5t-24.5 189zM285 -248l20 70 q16 -8 49 -8q57 0 58 28q0 16 -9.5 22.5t-33.5 6.5h-25q-4 0 -11 -1t-18 -3v147h66v-73q102 0 102 -93q0 -59 -30.5 -83.5t-96.5 -24.5q-23 0 -42 4t-29 8z" />
<glyph unicode="&#xe8;" d="M59 430q0 106 25 193.5t72 149t114.5 94t151.5 32.5q154 0 248 -112.5t94 -335.5v-64q0 -12 -1 -23.5t-3 -21.5h-529q0 -43 17.5 -77t45.5 -57.5t61.5 -34.5t68.5 -11q45 0 79 12t58 43l113 -104q-49 -66 -113.5 -94.5t-142.5 -28.5q-180 0 -269.5 114.5t-89.5 325.5z M231 510h363q-4 94 -51 158.5t-123 64.5q-82 0 -133.5 -64.5t-55.5 -158.5zM228 1124h139l113 -198h-78z" />
<glyph unicode="&#xe9;" d="M59 430q0 106 25 193.5t72 149t114.5 94t151.5 32.5q154 0 248 -112.5t94 -335.5v-64q0 -12 -1 -23.5t-3 -21.5h-529q0 -43 17.5 -77t45.5 -57.5t61.5 -34.5t68.5 -11q45 0 79 12t58 43l113 -104q-49 -66 -113.5 -94.5t-142.5 -28.5q-180 0 -269.5 114.5t-89.5 325.5z M231 510h363q-4 94 -51 158.5t-123 64.5q-82 0 -133.5 -64.5t-55.5 -158.5zM350 930l113 198h139l-174 -198h-78z" />
<glyph unicode="&#xea;" d="M59 430q0 106 25 193.5t72 149t114.5 94t151.5 32.5q154 0 248 -112.5t94 -335.5v-64q0 -12 -1 -23.5t-3 -21.5h-529q0 -43 17.5 -77t45.5 -57.5t61.5 -34.5t68.5 -11q45 0 79 12t58 43l113 -104q-49 -66 -113.5 -94.5t-142.5 -28.5q-180 0 -269.5 114.5t-89.5 325.5z M231 510h363q-4 94 -51 158.5t-123 64.5q-82 0 -133.5 -64.5t-55.5 -158.5zM203 948l166 197h121l170 -197h-129l-101 133l-100 -133h-127z" />
<glyph unicode="&#xeb;" d="M59 430q0 106 25 193.5t72 149t114.5 94t151.5 32.5q154 0 248 -112.5t94 -335.5v-64q0 -12 -1 -23.5t-3 -21.5h-529q0 -43 17.5 -77t45.5 -57.5t61.5 -34.5t68.5 -11q45 0 79 12t58 43l113 -104q-49 -66 -113.5 -94.5t-142.5 -28.5q-180 0 -269.5 114.5t-89.5 325.5z M231 510h363q-4 94 -51 158.5t-123 64.5q-82 0 -133.5 -64.5t-55.5 -158.5zM181 1065q0 41 25.5 67.5t66.5 26.5q39 0 66.5 -26.5t27.5 -67.5q0 -39 -27.5 -66.5t-66.5 -27.5q-41 0 -66.5 27.5t-25.5 66.5zM463 1065q0 41 28 67.5t64 26.5q41 0 67 -26.5t26 -67.5 q0 -39 -26 -66.5t-67 -27.5q-37 0 -64.5 27.5t-27.5 66.5z" />
<glyph unicode="&#xec;" horiz-adv-x="366" d="M96 0v874h168v-874h-168zM-4 1124h139l113 -198h-78z" />
<glyph unicode="&#xed;" horiz-adv-x="366" d="M96 0v874h168v-874h-168zM118 930l113 198h139l-174 -198h-78z" />
<glyph unicode="&#xee;" horiz-adv-x="366" d="M96 0v874h168v-874h-168zM-43 948l166 197h121l170 -197h-129l-101 133l-100 -133h-127z" />
<glyph unicode="&#xef;" horiz-adv-x="366" d="M96 0v874h168v-874h-168zM-47 1065q0 41 25.5 67.5t66.5 26.5q39 0 66.5 -26.5t27.5 -67.5q0 -39 -27.5 -66.5t-66.5 -27.5q-41 0 -66.5 27.5t-25.5 66.5zM235 1065q0 41 28 67.5t64 26.5q41 0 67 -26.5t26 -67.5q0 -39 -26 -66.5t-67 -27.5q-37 0 -64.5 27.5t-27.5 66.5 z" />
<glyph unicode="&#xf0;" horiz-adv-x="813" d="M63 377q0 80 21.5 147.5t61.5 114.5t94.5 73.5t119.5 26.5q55 0 117 -34.5t92 -88.5q-14 86 -44.5 150.5t-73.5 112.5l-93 -107l-127 111l74 86q-31 8 -65 12l26 160q41 -2 79 -13.5t73 -29.5l80 92l127 -111l-74 -86q86 -98 136 -244.5t50 -312.5q0 -211 -88 -328.5 t-237 -117.5q-160 0 -254.5 97t-94.5 290zM215 365q0 -98 52 -152.5t134 -54.5q80 0 125 55t45 154q0 98 -48 155.5t-130 57.5q-80 0 -129 -58.5t-49 -156.5z" />
<glyph unicode="&#xf1;" horiz-adv-x="833" d="M96 0v874h168v-108q31 59 87.5 88t131.5 29q117 0 187.5 -83t70.5 -225v-575h-168v543q0 86 -38.5 130t-108.5 44t-116 -44t-46 -130v-543h-168zM168 1001q31 57 68.5 82t84.5 25q37 0 60.5 -8t43 -19.5t38 -19.5t45.5 -8q59 0 92 69l63 -73q-37 -98 -149 -99 q-29 0 -50.5 9.5t-42 20.5t-41 20.5t-42.5 9.5q-25 0 -49.5 -15.5t-49.5 -54.5z" />
<glyph unicode="&#xf2;" d="M66 436q0 94 25.5 177t71.5 143.5t110.5 95.5t142.5 35q80 0 144.5 -34t110.5 -94.5t71.5 -143.5t25.5 -179q0 -203 -92 -324.5t-260 -121.5q-166 0 -258 117.5t-92 328.5zM233 434q0 -272 185 -272q182 0 182 272q0 281 -184 281q-88 0 -135.5 -78t-47.5 -203zM228 1124 h139l113 -198h-78z" />
<glyph unicode="&#xf3;" d="M66 436q0 94 25.5 177t71.5 143.5t110.5 95.5t142.5 35q80 0 144.5 -34t110.5 -94.5t71.5 -143.5t25.5 -179q0 -203 -92 -324.5t-260 -121.5q-166 0 -258 117.5t-92 328.5zM233 434q0 -272 185 -272q182 0 182 272q0 281 -184 281q-88 0 -135.5 -78t-47.5 -203zM350 910 l113 198h139l-174 -198h-78z" />
<glyph unicode="&#xf4;" d="M66 436q0 94 25.5 177t71.5 143.5t110.5 95.5t142.5 35q80 0 144.5 -34t110.5 -94.5t71.5 -143.5t25.5 -179q0 -203 -92 -324.5t-260 -121.5q-166 0 -258 117.5t-92 328.5zM233 434q0 -272 185 -272q182 0 182 272q0 281 -184 281q-88 0 -135.5 -78t-47.5 -203zM186 948 l166 197h121l170 -197h-129l-101 133l-100 -133h-127z" />
<glyph unicode="&#xf5;" d="M66 436q0 94 25.5 177t71.5 143.5t110.5 95.5t142.5 35q80 0 144.5 -34t110.5 -94.5t71.5 -143.5t25.5 -179q0 -203 -92 -324.5t-260 -121.5q-166 0 -258 117.5t-92 328.5zM233 434q0 -272 185 -272q182 0 182 272q0 281 -184 281q-88 0 -135.5 -78t-47.5 -203zM166 1001 q31 57 68.5 82t84.5 25q37 0 60.5 -8t43 -19.5t38 -19.5t45.5 -8q59 0 92 69l63 -73q-37 -98 -149 -99q-29 0 -50.5 9.5t-42 20.5t-41 20.5t-42.5 9.5q-25 0 -49.5 -15.5t-49.5 -54.5z" />
<glyph unicode="&#xf6;" d="M66 436q0 94 25.5 177t71.5 143.5t110.5 95.5t142.5 35q80 0 144.5 -34t110.5 -94.5t71.5 -143.5t25.5 -179q0 -203 -92 -324.5t-260 -121.5q-166 0 -258 117.5t-92 328.5zM233 434q0 -272 185 -272q182 0 182 272q0 281 -184 281q-88 0 -135.5 -78t-47.5 -203zM181 1065 q0 41 25.5 67.5t66.5 26.5q39 0 66.5 -26.5t27.5 -67.5q0 -39 -27.5 -66.5t-66.5 -27.5q-41 0 -66.5 27.5t-25.5 66.5zM463 1065q0 41 28 67.5t64 26.5q41 0 67 -26.5t26 -67.5q0 -39 -26 -66.5t-67 -27.5q-37 0 -64.5 27.5t-27.5 66.5z" />
<glyph unicode="&#xf8;" d="M66 436q0 94 25.5 177t71.5 143.5t110.5 95.5t142.5 35q49 0 93 -14.5t83 -38.5l20 34h117l-63 -104q49 -61 75.5 -145t26.5 -183q0 -203 -92 -324.5t-260 -121.5q-102 0 -180 47l-37 -64h-117l78 133q-94 113 -94 330zM233 434q0 -100 25 -164l250 420q-41 25 -92 25 q-88 0 -135.5 -78t-47.5 -203zM326 186q37 -25 92 -24q182 0 182 272q0 53 -7 95t-20 77z" />
<glyph unicode="&#xf9;" horiz-adv-x="837" d="M92 297v577h168v-520q0 -86 37 -139t109 -53q70 0 117.5 53t47.5 139v520h168v-874h-168v106q-33 -61 -92 -88.5t-129 -27.5q-117 0 -187.5 83t-70.5 224zM232 1124h139l113 -198h-78z" />
<glyph unicode="&#xfa;" horiz-adv-x="837" d="M92 297v577h168v-520q0 -86 37 -139t109 -53q70 0 117.5 53t47.5 139v520h168v-874h-168v106q-33 -61 -92 -88.5t-129 -27.5q-117 0 -187.5 83t-70.5 224zM354 930l113 198h139l-174 -198h-78z" />
<glyph unicode="&#xfb;" horiz-adv-x="837" d="M92 297v577h168v-520q0 -86 37 -139t109 -53q70 0 117.5 53t47.5 139v520h168v-874h-168v106q-33 -61 -92 -88.5t-129 -27.5q-117 0 -187.5 83t-70.5 224zM190 948l166 197h121l170 -197h-129l-101 133l-100 -133h-127z" />
<glyph unicode="&#xfc;" horiz-adv-x="837" d="M92 297v577h168v-520q0 -86 37 -139t109 -53q70 0 117.5 53t47.5 139v520h168v-874h-168v106q-33 -61 -92 -88.5t-129 -27.5q-117 0 -187.5 83t-70.5 224zM185 1065q0 41 25.5 67.5t66.5 26.5q39 0 66.5 -26.5t27.5 -67.5q0 -39 -27.5 -66.5t-66.5 -27.5 q-41 0 -66.5 27.5t-25.5 66.5zM467 1065q0 41 28 67.5t64 26.5q41 0 67 -26.5t26 -67.5q0 -39 -26 -66.5t-67 -27.5q-37 0 -64.5 27.5t-27.5 66.5z" />
<glyph unicode="&#xfd;" horiz-adv-x="804" d="M66 874h178l168 -653l163 653h179l-357 -1243h-176l105 365zM337 930l113 198h139l-174 -198h-78z" />
<glyph unicode="&#xfe;" horiz-adv-x="823" d="M96 -369v1454l168 74v-356q20 35 68.5 58.5t130.5 23.5q150 0 232.5 -121t82.5 -338q0 -92 -22.5 -172t-65.5 -139.5t-103.5 -93t-135.5 -33.5q-66 0 -115 30.5t-72 73.5v-350zM264 303q4 -20 18.5 -46t36 -47.5t49 -36.5t60.5 -15q45 0 81 21.5t60.5 57t36.5 85 t12 104.5q0 137 -43 213t-153 76q-61 0 -101 -46t-57 -114v-252z" />
<glyph unicode="&#xff;" horiz-adv-x="804" d="M66 874h178l168 -653l163 653h179l-357 -1243h-176l105 365zM201 1051q0 41 25.5 67.5t66.5 26.5q39 0 66.5 -26.5t27.5 -67.5q0 -39 -27.5 -66.5t-66.5 -27.5q-41 0 -66.5 27.5t-25.5 66.5zM483 1051q0 41 28 67.5t64 26.5q41 0 67 -26.5t26 -67.5q0 -39 -26 -66.5 t-67 -27.5q-37 0 -64.5 27.5t-27.5 66.5z" />
<glyph unicode="&#x131;" horiz-adv-x="366" d="M96 0v874h168v-874h-168z" />
<glyph unicode="&#x152;" horiz-adv-x="1298" d="M82 567q0 279 106.5 426.5t305.5 147.5q152 0 254 -86v80h460v-168h-293v-301h232v-168h-232v-330h293v-168h-460v76q-96 -84 -240 -84q-199 0 -312.5 144t-113.5 431zM250 567q0 -211 62.5 -308t185.5 -97t185 97t62 308q0 205 -56 306.5t-191 101.5 q-129 0 -188.5 -101.5t-59.5 -306.5z" />
<glyph unicode="&#x153;" horiz-adv-x="1247" d="M86 436q0 94 18.5 177t57.5 143.5t97 95.5t136 35q143 0 223 -111q76 123 242 123q301 0 301 -430v-63q0 -16 -1 -33t-3 -31h-446v-4q0 -86 43 -131t108 -45q45 0 64.5 15.5t31.5 39.5l113 -104q-49 -66 -93 -94.5t-122 -28.5q-162 0 -235 102q-80 -102 -226 -102 q-166 0 -237.5 117.5t-71.5 328.5zM254 434q0 -68 6 -119t21.5 -84.5t43 -51t72.5 -17.5q90 0 116 66.5t26 205.5q0 141 -26 211t-118 70q-86 0 -113.5 -78t-27.5 -203zM711 510h280q-4 94 -31.5 158.5t-101.5 64.5q-41 0 -68.5 -17.5t-44 -47t-24.5 -70.5t-10 -88z" />
<glyph unicode="&#x178;" horiz-adv-x="966" d="M55 1135h191l239 -533l238 533h188l-331 -701v-434h-191v430zM250 1325q0 41 25.5 67.5t66.5 26.5q39 0 66.5 -26.5t27.5 -67.5q0 -39 -27.5 -66.5t-66.5 -27.5q-41 0 -66.5 27.5t-25.5 66.5zM532 1325q0 41 28 67.5t64 26.5q41 0 67 -26.5t26 -67.5q0 -39 -26 -66.5 t-67 -27.5q-37 0 -64.5 27.5t-27.5 66.5z" />
<glyph unicode="&#x2c6;" horiz-adv-x="552" d="M47 948l166 197h121l170 -197h-129l-101 133l-100 -133h-127z" />
<glyph unicode="&#x2da;" horiz-adv-x="468" d="M111 1083q0 55 34.5 93t87.5 38t89 -38.5t36 -92.5q0 -53 -35.5 -87.5t-89.5 -34.5q-53 0 -87.5 34.5t-34.5 87.5zM156 1087q0 -37 23.5 -60t56.5 -23q35 0 59 23.5t24 59.5q0 35 -25.5 59.5t-57.5 24.5q-31 0 -55.5 -24.5t-24.5 -59.5z" />
<glyph unicode="&#x2dc;" horiz-adv-x="641" d="M72 1001q31 57 68.5 82t84.5 25q37 0 60.5 -8t43 -19.5t38 -19.5t45.5 -8q59 0 92 69l63 -73q-37 -98 -149 -99q-29 0 -50.5 9.5t-42 20.5t-41 20.5t-42.5 9.5q-25 0 -49.5 -15.5t-49.5 -54.5z" />
<glyph unicode="&#x2013;" horiz-adv-x="718" d="M96 528v168h541v-168h-541z" />
<glyph unicode="&#x2014;" horiz-adv-x="1220" d="M96 528v168h1053v-168h-1053z" />
<glyph unicode="&#x2018;" horiz-adv-x="260" d="M41 1006q0 236 145 251v-30q-37 -8 -56 -28.5t-24 -78.5h31q33 0 60.5 -36.5t27.5 -77.5q0 -47 -28.5 -81t-65.5 -34q-41 0 -65.5 34t-24.5 81z" />
<glyph unicode="&#x2019;" horiz-adv-x="262" d="M33 1067q0 49 27.5 82t70.5 33q37 0 63.5 -33t26.5 -82q0 -104 -37 -173t-110 -79v31q39 8 59.5 29.5t24.5 78.5h-27q-43 0 -70.5 32t-27.5 81z" />
<glyph unicode="&#x201c;" horiz-adv-x="526" d="M49 1006q0 104 38 172.5t112 78.5v-30q-37 -8 -57.5 -28.5t-24.5 -78.5h33q33 0 60.5 -33.5t27.5 -80.5t-28 -81t-65 -34q-43 0 -69.5 34t-26.5 81zM289 1006q0 104 39 172.5t110 78.5v-30q-39 -8 -59.5 -28.5t-24.5 -78.5h33q35 0 62.5 -36.5t27.5 -77.5 q0 -47 -27.5 -81t-68.5 -34q-37 0 -64.5 34t-27.5 81z" />
<glyph unicode="&#x201d;" horiz-adv-x="526" d="M47 1067q0 49 29.5 82t68.5 33q41 0 66 -33t25 -82q0 -104 -37 -173t-109 -79v31q37 8 56.5 29.5t23.5 78.5h-25q-39 0 -68.5 32t-29.5 81zM289 1067q0 49 27.5 82t64.5 33q43 0 68.5 -33t25.5 -82q0 -104 -38 -173t-109 -79l2 31q35 8 54 29.5t24 78.5h-27 q-37 0 -64.5 32t-27.5 81z" />
<glyph unicode="&#x201e;" horiz-adv-x="548" d="M312 115q0 47 25.5 80.5t66.5 33.5q35 0 63.5 -33.5t28.5 -80.5t-9.5 -91t-27.5 -79t-48 -57.5t-69 -26.5v24q41 10 60.5 35t23.5 80h-26q-41 0 -64.5 35t-23.5 80zM68 115q0 47 25.5 80.5t66.5 33.5q35 0 63.5 -33.5t28.5 -80.5t-9.5 -91t-27.5 -79t-48 -57.5t-69 -26.5 v24q41 10 60.5 35t23.5 80h-26q-41 0 -64.5 35t-23.5 80z" />
<glyph unicode="&#x2022;" horiz-adv-x="1085" d="M283 653q0 51 19.5 95.5t52 77t76.5 52t95 19.5t95.5 -19.5t77 -52t52 -76.5t19.5 -96q0 -51 -19.5 -95t-52 -76.5t-76.5 -52t-96 -19.5q-51 0 -95 19.5t-76.5 52t-52 76.5t-19.5 95z" />
<glyph unicode="&#x2026;" horiz-adv-x="1527" d="M109 115q0 47 24.5 80.5t65.5 33.5q35 0 63.5 -33.5t28.5 -80.5t-29 -81t-63 -34q-41 0 -65.5 34t-24.5 81zM686 115q0 47 25.5 80.5t66.5 33.5q39 0 66.5 -33.5t27.5 -80.5t-27.5 -81t-66.5 -34q-41 0 -66.5 34t-25.5 81zM1266 115q0 47 25.5 80.5t66.5 33.5 q37 0 65.5 -33.5t28.5 -80.5t-28.5 -81t-65.5 -34q-41 0 -66.5 34t-25.5 81z" />
<glyph unicode="&#x2039;" horiz-adv-x="471" d="M84 555v121l319 166v-127l-208 -97l208 -98v-123z" />
<glyph unicode="&#x203a;" horiz-adv-x="471" d="M84 397v127l209 99l-209 96v123l319 -158v-121z" />
<glyph unicode="&#x20ac;" horiz-adv-x="915" d="M37 358v170h61v86l-61 4v164h88q47 166 156.5 264.5t275.5 98.5q178 0 293 -98l-88 -183q-45 45 -92 68.5t-113 23.5q-86 0 -147.5 -46t-96.5 -128h408l-80 -168h-365v-86h322l-82 -170h-199q37 -86 100.5 -134t145.5 -48q47 0 96.5 20.5t88.5 49.5l112 -148 q-113 -113 -303 -112q-160 0 -272.5 102t-159.5 270h-88z" />
<glyph unicode="&#x2122;" horiz-adv-x="1148" d="M88 991v111h408v-111h-142v-456h-121v456h-145zM547 537v567h137l109 -293l106 293h133v-567h-114v311l-123 -316l-136 328v-323h-112z" />
<glyph unicode="&#xe000;" horiz-adv-x="875" d="M0 875h875v-875h-875v875z" />
<glyph unicode="&#xfb01;" horiz-adv-x="880" d="M604 1077q0 49 24.5 82t69.5 33q39 0 66.5 -33t27.5 -82q0 -47 -28.5 -79.5t-65.5 -32.5q-43 0 -68.5 32.5t-25.5 79.5zM614 0v874h168v-874h-168zM57 707v167h93q0 147 57 229.5t176 82.5q39 0 82 -6v-154q-35 8 -72 8q-55 0 -76.5 -33.5t-21.5 -126.5h172v-167h-164 v-707h-153v707h-93z" />
<glyph unicode="&#xfb02;" horiz-adv-x="880" d="M610 0v1063l168 106v-1169h-168zM57 707v167h93q0 147 57 229.5t176 82.5q39 0 82 -6v-154q-35 8 -72 8q-55 0 -76.5 -33.5t-21.5 -126.5h172v-167h-164v-707h-153v707h-93z" />
<glyph unicode="&#xfb03;" horiz-adv-x="1398" d="M1122 1077q0 49 24.5 82t69.5 33q39 0 66.5 -33t27.5 -82q0 -47 -28.5 -79.5t-65.5 -32.5q-43 0 -68.5 32.5t-25.5 79.5zM1132 0v874h168v-874h-168zM575 707v167h93q0 147 57 229.5t176 82.5q39 0 82 -6v-154q-35 8 -72 8q-55 0 -76.5 -33.5t-21.5 -126.5h172v-167h-164 v-707h-153v707h-93zM57 707v167h93q0 147 57 229.5t176 82.5q39 0 82 -6v-154q-35 8 -72 8q-55 0 -76.5 -33.5t-21.5 -126.5h172v-167h-164v-707h-153v707h-93z" />
<glyph unicode="&#xfb04;" horiz-adv-x="1398" d="M1128 0v1063l168 106v-1169h-168zM575 707v167h93q0 147 57 229.5t176 82.5q39 0 82 -6v-154q-35 8 -72 8q-55 0 -76.5 -33.5t-21.5 -126.5h172v-167h-164v-707h-153v707h-93zM57 707v167h93q0 147 57 229.5t176 82.5q39 0 82 -6v-154q-35 8 -72 8q-55 0 -76.5 -33.5 t-21.5 -126.5h172v-167h-164v-707h-153v707h-93z" />
</font>
</defs>
</svg>
